<svg width="40" height="40" viewBox="0 0 40 40" fill="none" xmlns="http://www.w3.org/2000/svg">
<path fill-rule="evenodd" clip-rule="evenodd" d="M33.5084 18.895C28.2045 18.895 23.7846 10.7182 23.7846 1.10497C23.7846 0.441989 23.3426 0 22.6796 0C22.0166 0 21.5746 0.441989 21.5746 1.10497C21.5746 10.7182 17.1547 18.895 11.8508 18.895C11.1878 18.895 10.7458 19.337 10.7458 20C10.7458 20.663 11.1878 21.105 11.8508 21.105C17.1547 21.105 21.5746 29.2818 21.5746 38.895C21.5746 39.558 22.0166 40 22.6796 40C23.3426 40 23.7846 39.558 23.7846 38.895C23.7846 29.2818 28.2045 21.105 33.5084 21.105C34.1714 21.105 34.6134 20.663 34.6134 20C34.6134 19.337 34.1714 18.895 33.5084 18.895ZM22.7901 30.2762C21.4641 25.4144 19.0332 21.768 15.9392 20C18.9227 18.232 21.4641 14.4751 22.7901 9.72376C24.1161 14.5856 26.547 18.232 29.641 20C26.547 21.768 24.1161 25.5249 22.7901 30.2762Z" fill="#142B6F"/>
<path fill-rule="evenodd" clip-rule="evenodd" d="M11.4089 30.3869C10.6354 30.3869 9.8619 29.3924 9.8619 27.9559C9.8619 27.2929 9.41991 26.851 8.75692 26.851C8.09394 26.851 7.65195 27.2929 7.65195 27.9559C7.65195 29.3924 6.87846 30.3869 6.10498 30.3869C5.44199 30.3869 5 30.8289 5 31.4918C5 32.1548 5.44199 32.5968 6.10498 32.5968C6.87846 32.5968 7.65195 33.5913 7.65195 35.0277C7.65195 35.6907 8.09394 36.1327 8.75692 36.1327C9.41991 36.1327 9.8619 35.6907 9.8619 35.0277C9.8619 33.5913 10.6354 32.5968 11.4089 32.5968C12.0719 32.5968 12.5138 32.1548 12.5138 31.4918C12.5138 30.8289 11.9614 30.3869 11.4089 30.3869Z" fill="#142B6F"/>
<path d="M11.4089 10.0553C12.3243 10.0553 13.0664 9.3132 13.0664 8.39782C13.0664 7.48243 12.3243 6.74036 11.4089 6.74036C10.4935 6.74036 9.75146 7.48243 9.75146 8.39782C9.75146 9.3132 10.4935 10.0553 11.4089 10.0553Z" fill="#142B6F"/>
<path fill-rule="evenodd" clip-rule="evenodd" d="M6.10498 15.138C6.76796 15.138 7.20996 14.5856 7.20996 14.0331C7.20996 13.3701 6.65747 12.9281 6.10498 12.9281C5.44199 12.9281 5 13.4806 5 14.0331C5 14.5856 5.44199 15.138 6.10498 15.138Z" fill="#142B6F"/>
</svg>
