<svg width="40" height="40" viewBox="0 0 40 40" fill="none" xmlns="http://www.w3.org/2000/svg">
<g clip-path="url(#clip0_65_25)">
<path d="M39.4348 37.807L33.3724 34.8309V1.10224C33.3724 0.440898 32.9315 0 32.2702 0H7.80022C7.13887 0 6.69797 0.440898 6.69797 1.10224V34.8309L0.635602 37.807C0.0844773 38.0274 -0.135973 38.6888 0.0844771 39.2399C0.304927 39.6808 0.635602 39.9012 1.0765 39.9012C1.18673 39.9012 1.40718 39.9012 1.5174 39.791L8.02067 36.5945H11.3274V38.2479C11.3274 38.9092 11.7683 39.3501 12.4297 39.3501H27.4203C28.0816 39.3501 28.5225 38.9092 28.5225 38.2479V36.5945H31.8293L38.3325 39.791C38.4428 39.9012 38.6632 39.9012 38.7734 39.9012C39.2143 39.9012 39.545 39.6808 39.7655 39.2399C40.2064 38.799 39.9859 38.1377 39.4348 37.807ZM26.4282 37.1456H13.6421V30.2015H26.4282V37.1456ZM31.1679 34.39H28.743V29.0992C28.743 28.4379 28.3021 27.997 27.6407 27.997H12.5399C11.8785 27.997 11.4376 28.4379 11.4376 29.0992V34.39H8.90247V2.20449H31.0577V34.39H31.1679Z" fill="#142B6F"/>
<path d="M12.0989 19.5096C12.8705 19.5096 13.5319 18.8483 13.5319 18.0767C13.5319 17.3051 12.8705 16.6438 12.0989 16.6438C11.3274 16.6438 10.666 17.3051 10.666 18.0767C10.666 18.8483 11.3274 19.5096 12.0989 19.5096Z" fill="#142B6F"/>
</g>
<defs>
<clipPath id="clip0_65_25">
<rect width="40" height="40" fill="white"/>
</clipPath>
</defs>
</svg>
