<svg width="40" height="40" viewBox="0 0 40 40" fill="none" xmlns="http://www.w3.org/2000/svg">
<g clip-path="url(#clip0_65_29)">
<path d="M39.7765 20.19L34.3017 12.3687C34.0782 12.0335 33.743 11.9218 33.4078 11.9218H28.9385V7.11732C28.9385 6.44693 28.4916 6 27.8212 6H1.11732C0.446927 6 0 6.44693 0 7.11732V28.6816C0 29.352 0.446927 29.7989 1.11732 29.7989H5.69832C6.03352 31.6983 7.7095 33.1509 9.72067 33.1509C11.7318 33.1509 13.4078 31.6983 13.743 29.7989H25.9218C26.257 31.6983 27.933 33.1509 29.9441 33.1509C31.9553 33.1509 33.6313 31.6983 33.9665 29.7989H38.8827C39.5531 29.7989 40 29.352 40 28.6816V20.8603C40 20.5251 39.8883 20.3017 39.7765 20.19ZM2.23464 14.0447H12.6257C13.2961 14.0447 13.743 13.5978 13.743 12.9274C13.743 12.257 13.2961 11.8101 12.6257 11.8101H2.23464V8.23464H26.7039V13.0391V26.5587C26.7039 26.5587 26.7039 26.5587 26.7039 26.6704C26.4804 27.0056 26.257 27.3408 26.1452 27.676H13.5196C13.1844 26.7821 12.4022 26 11.5084 25.5531C11.5084 25.5531 11.5084 25.5531 11.3966 25.5531C11.2849 25.4414 11.1732 25.4414 11.0615 25.4414C10.9497 25.4414 10.838 25.3296 10.7263 25.3296C10.6145 25.3296 10.5028 25.3296 10.3911 25.2179C10.1676 25.2179 9.94413 25.1062 9.72067 25.1062C9.49721 25.1062 9.27374 25.1062 9.05028 25.2179C8.93855 25.2179 8.82681 25.2179 8.71508 25.3296C8.60335 25.1062 8.49162 25.1062 8.37989 25.1062C8.26816 25.1062 8.15642 25.2179 8.04469 25.2179H7.93296C7.03911 25.6648 6.36872 26.4469 5.92179 27.3408H2.23464V14.0447ZM9.72067 30.8045C8.71508 30.8045 7.82123 30.0224 7.82123 28.905C7.82123 28.7933 7.82123 28.7933 7.93296 28.6816C8.04469 28.0112 8.49162 27.4525 9.05028 27.1173H9.16201C9.27374 27.1173 9.27374 27.1173 9.38547 27.0056C9.49721 27.0056 9.60894 27.0056 9.72067 27.0056C9.8324 27.0056 9.94413 27.0056 10.0559 27.0056C10.1676 27.0056 10.1676 27.0056 10.2793 27.1173H10.3911C10.9497 27.3408 11.3966 27.8995 11.5084 28.6816C11.5084 28.7933 11.5084 28.7933 11.6201 28.905C11.5084 30.0224 10.7263 30.8045 9.72067 30.8045ZM29.8324 30.8045C28.8268 30.8045 27.933 30.0224 27.933 28.905C27.933 28.7933 27.933 28.7933 28.0447 28.6816C28.0447 28.3464 28.1564 27.8995 28.6034 27.5643C28.8268 27.3408 28.9385 27.2291 29.162 27.1173C29.2737 27.1173 29.3855 27.0056 29.4972 27.0056C29.6089 27.0056 29.7207 27.0056 29.8324 27.0056C29.9441 27.0056 30.0559 27.0056 30.1676 27.0056C30.2793 27.0056 30.2793 27.0056 30.3911 27.1173H30.5028C31.0615 27.3408 31.5084 27.8995 31.6201 28.6816C31.6201 28.7933 31.6201 28.7933 31.7318 28.905C31.7318 30.0224 30.9497 30.8045 29.8324 30.8045ZM37.7654 27.5643H33.743C33.4078 26.6704 32.6257 25.8883 31.7318 25.4414H31.6201C31.5084 25.3296 31.3966 25.3296 31.2849 25.3296C31.1732 25.3296 31.0615 25.2179 30.9497 25.2179C30.838 25.2179 30.7263 25.2179 30.6145 25.1062C30.3911 25.1062 30.1676 24.9944 29.9441 24.9944C29.6089 24.9944 29.3855 24.9944 29.0503 25.1062V14.1564H32.8492L37.8771 21.1955V27.5643H37.7654Z" fill="#142B6F"/>
</g>
<defs>
<clipPath id="clip0_65_29">
<rect width="40" height="40" fill="white"/>
</clipPath>
</defs>
</svg>
