<svg width="40" height="40" viewBox="0 0 40 40" fill="none" xmlns="http://www.w3.org/2000/svg">
<g clip-path="url(#clip0_65_40)">
<path fill-rule="evenodd" clip-rule="evenodd" d="M39.355 5.14563C38.7958 4.92194 38.1247 5.14563 37.901 5.59303L36.2232 9.17221C35.4403 7.94187 34.5455 6.71153 33.5389 5.70488C30.9663 3.0205 28.0583 1.6783 26.1568 1.00721C22.4658 -0.223134 19.1103 -0.111285 16.9852 0.224263C12.5112 0.895359 9.26757 2.90865 7.36613 4.47454C5.46469 6.04043 2.89216 8.61296 1.32627 12.7514C-0.239622 16.6661 -0.127773 20.2453 0.207775 22.4823C0.543323 24.7193 1.32627 28.0747 3.78695 31.4302C5.0173 33.108 8.48462 37.1345 14.4126 38.7004C15.4193 38.9241 16.5378 39.1478 17.5444 39.2597C17.9918 39.2597 18.4392 39.3715 18.9985 39.3715C24.5909 39.3715 29.4004 36.6871 32.5322 34.2265C32.9796 33.8909 33.0915 33.2198 32.7559 32.6606C32.4204 32.2132 31.7493 32.1013 31.19 32.4369C28.0583 34.7857 23.2487 37.4701 17.7681 37.0227C16.8733 36.9108 15.8667 36.799 14.9719 36.5753C9.49127 35.1213 6.35949 31.3184 5.46469 30.088C3.33956 27.18 2.55661 24.16 2.33291 22.1467C2.10921 20.1334 1.99736 16.8898 3.33956 13.4225C4.7936 9.84331 7.03058 7.49447 8.70832 6.15228C10.3861 4.81009 13.2941 3.0205 17.2089 2.3494C19.1103 2.01385 22.1302 2.01385 25.3739 3.13235C27.0516 3.69159 29.6241 4.92194 31.973 7.27077C32.9796 8.27742 33.7626 9.39591 34.4337 10.5144L30.6308 9.73146C30.0715 9.61961 29.5123 9.95516 29.2886 10.5144C29.1767 11.0736 29.5123 11.6329 30.0715 11.8566L35.5522 13.0869C35.664 13.0869 35.664 13.0869 35.7759 13.0869C35.9996 13.0869 36.2233 12.9751 36.4469 12.8632C36.7825 12.7514 37.0062 12.5277 37.118 12.304L39.9143 6.59968C40.138 6.15228 39.9143 5.48118 39.355 5.14563Z" fill="#142B6F"/>
<path fill-rule="evenodd" clip-rule="evenodd" d="M18.8866 8.05383C18.3273 8.05383 17.7681 8.50123 17.7681 9.17233V21.1402C17.7681 21.5876 17.9918 21.9232 18.4392 22.1468L26.0449 25.726C26.1568 25.8379 26.3805 25.8379 26.4923 25.8379C26.9397 25.8379 27.2753 25.6142 27.499 25.1668C27.7227 24.6075 27.499 23.9364 26.9397 23.7127L20.0051 20.4691V9.17233C20.0051 8.61308 19.5577 8.05383 18.8866 8.05383Z" fill="#142B6F"/>
</g>
<defs>
<clipPath id="clip0_65_40">
<rect width="40" height="40" fill="white"/>
</clipPath>
</defs>
</svg>
