<svg width="40" height="40" viewBox="0 0 40 40" fill="none" xmlns="http://www.w3.org/2000/svg">
<g clip-path="url(#clip0_65_90)">
<path fill-rule="evenodd" clip-rule="evenodd" d="M20.0039 2.28527C8.80608 2.28527 2.52159 12.569 2.29306 19.9961C2.1788 23.424 3.20717 26.8519 5.37817 29.937C8.57755 34.7361 14.1765 37.7069 20.0039 37.7069C29.8306 37.7069 37.7147 29.7085 37.7147 19.9961C37.7147 10.2837 29.8306 2.28527 20.0039 2.28527ZM20.0039 39.9922C13.4909 39.9922 7.09213 36.5643 3.43569 31.1939C1.03616 27.6517 -0.106473 23.7668 0.00779069 19.8818C0.350581 10.2837 8.46329 0 20.0039 0C31.0875 0 40 9.02681 40 19.9961C40 30.9654 31.0875 39.9922 20.0039 39.9922Z" fill="#142B6F"/>
<path fill-rule="evenodd" clip-rule="evenodd" d="M24.1174 22.0528C24.346 23.1954 24.5745 24.3381 24.9173 25.595C25.0316 25.9378 25.0316 26.2806 25.1458 26.6233L24.4602 26.2806C23.7747 25.8235 23.0891 25.4807 22.2892 25.1379C21.8322 24.9094 21.4894 24.6809 21.2609 24.5666C20.1182 23.881 20.004 23.881 18.8613 24.5666C18.6328 24.6809 18.29 24.9094 17.833 25.1379C17.1474 25.4807 16.4618 25.9378 15.7762 26.2806L15.2049 26.6233C15.3192 26.2806 15.3192 25.9378 15.4334 25.595C15.5477 25.2522 15.5477 25.0237 15.6619 24.6809C15.7762 23.881 16.0047 23.0812 16.2333 22.2813C16.4618 21.5958 16.2333 21.1387 15.6619 20.5674C14.7478 19.7675 13.8337 18.9677 12.9196 18.1679L12.1198 17.4823C12.4626 17.4823 12.6911 17.368 13.0339 17.368L13.948 17.2537C14.8621 17.1395 15.8905 17.0252 16.9188 16.911C17.6044 16.911 18.0615 16.5682 18.4043 15.8826C18.8613 14.8542 19.3184 13.9401 19.7754 12.9117L20.2325 11.8834C20.2325 11.7691 20.2325 11.7691 20.3467 11.6548L20.6895 12.3404C21.0323 13.1403 21.3751 13.8258 21.7179 14.6257C21.9464 14.9685 22.0607 15.3113 22.175 15.5398C22.7463 16.6824 22.7463 16.7967 24.0032 16.911C24.2317 16.911 24.5745 16.911 25.0316 17.0252C25.8314 17.1395 26.6312 17.2537 27.4311 17.2537L28.4595 17.368L27.6596 18.0536C26.7455 18.8534 25.8314 19.6533 24.9173 20.4531C24.1174 20.9102 24.0032 21.3672 24.1174 22.0528ZM31.2018 17.368C31.4303 17.1395 31.6588 16.5682 31.5446 16.2254C31.4303 15.8826 30.9733 15.5398 30.5162 15.5398C28.5737 15.3113 26.517 15.0827 24.2317 14.8542C23.8889 14.8542 23.7747 14.74 23.5461 14.3972C22.9748 13.2545 22.4035 11.9976 21.9464 10.855L21.1466 8.91252C21.0323 8.56973 20.6895 7.99841 20.004 7.99841C19.3184 7.99841 19.0899 8.56973 18.8613 9.02678L18.4043 10.0552C17.7187 11.4263 17.0331 12.9117 16.3475 14.3972C16.2333 14.6257 16.0047 14.74 15.7762 14.8542C14.7478 14.9685 13.7195 15.0827 12.6911 15.197C11.6627 15.3113 10.6344 15.4255 9.49172 15.5398C9.03467 15.5398 8.57761 15.8826 8.34909 16.2254C8.0063 16.7967 8.57761 17.368 8.80614 17.5965C9.14893 17.9393 9.60598 18.2821 9.94877 18.6249C10.7486 19.3105 11.5485 20.1103 12.4626 20.7959C13.4909 21.5958 13.8337 22.3956 13.3767 23.6525C13.0339 24.7951 12.8054 25.9378 12.5768 27.0804C12.4626 27.5375 12.3483 27.9945 12.3483 28.4516C12.3483 28.9086 12.4626 29.3657 12.8054 29.5942C12.9196 29.7085 13.1482 29.7085 13.3767 29.7085C13.6052 29.7085 13.8337 29.5942 14.0623 29.4799C15.7762 28.5658 17.6044 27.5375 19.4326 26.5091C19.7754 26.2806 20.004 26.2806 20.461 26.5091C22.4035 27.6517 24.1174 28.5658 25.7171 29.3657C26.0599 29.5942 26.7455 29.5942 27.0883 29.3657C27.4311 29.1371 27.5453 28.4516 27.4311 28.1088C27.0883 26.3948 26.7455 24.5666 26.1742 22.2813C26.0599 21.9385 26.1742 21.8243 26.4027 21.5958C28.1167 20.2246 29.7164 18.8534 31.2018 17.368Z" fill="#142B6F"/>
</g>
<defs>
<clipPath id="clip0_65_90">
<rect width="40" height="40" fill="white"/>
</clipPath>
</defs>
</svg>
