<svg width="40" height="40" viewBox="0 0 40 40" fill="none" xmlns="http://www.w3.org/2000/svg">
<g clip-path="url(#clip0_65_49)">
<path d="M19.943 0C9.91454 0 0 9.80057 0 20.057C0 30.9972 8.8889 40 19.943 40C30.9972 40 39.8861 31.1111 39.8861 20.057C39.8861 9.00285 31.1111 0 19.943 0ZM19.943 37.7208C10.3704 37.7208 2.2792 29.7436 2.2792 20.057C2.2792 11.1681 11.1681 2.16524 19.943 2.16524C29.7436 2.16524 37.6069 10.2564 37.6069 19.8291C37.8348 29.7436 29.7436 37.7208 19.943 37.7208Z" fill="#0D2A6E"/>
<path d="M26.8947 13.2193C26.4388 12.7635 25.7551 12.7635 25.2992 13.2193L19.9431 18.5754L14.8149 13.2193C14.3591 12.7635 13.4474 12.7635 12.9915 13.2193C12.5357 13.6752 12.5357 14.3589 12.9915 14.8148L18.3477 20.1709L12.9915 25.527C12.5357 25.9829 12.5357 26.6666 12.9915 27.1225C13.2195 27.3504 13.4474 27.3504 13.9032 27.3504C14.3591 27.3504 14.587 27.3504 14.8149 27.1225L20.171 21.7663L25.5272 27.1225C25.7551 27.3504 25.983 27.3504 26.4388 27.3504C26.8947 27.3504 27.1226 27.3504 27.3505 27.1225C27.8064 26.6666 27.8064 25.9829 27.3505 25.527L21.5386 20.1709L26.8947 14.8148C27.3505 14.245 27.3505 13.6752 26.8947 13.2193Z" fill="#0D2A6E"/>
</g>
<defs>
<clipPath id="clip0_65_49">
<rect width="40" height="40" fill="white"/>
</clipPath>
</defs>
</svg>
