<svg width="24" height="24" viewBox="0 0 24 24" fill="none" xmlns="http://www.w3.org/2000/svg">
<g clip-path="url(#clip0_34_2)">
<path d="M8.54399 12.6133C7.59256 11.703 7.00002 10.4207 7.00002 9C7.00002 6.23858 9.2386 4 12 4C14.7614 4 17 6.23858 17 9C17 10.4207 16.4075 11.703 15.4561 12.6133C18.1834 13.6178 20.3522 15.777 21.3697 18.498C20.8931 19.0927 20.3611 19.6411 19.7815 20.1353C18.9414 16.6164 15.7763 14 12 14C8.22379 14 5.05864 16.6164 4.2185 20.1353C3.6389 19.6411 3.10691 19.0927 2.63037 18.498C3.64783 15.777 5.81665 13.6178 8.54399 12.6133ZM12 12C13.6569 12 15 10.6569 15 9C15 7.34315 13.6569 6 12 6C10.3432 6 9.00002 7.34315 9.00002 9C9.00002 10.6569 10.3432 12 12 12Z" fill="#142B6F"/>
<path d="M12 22.068C17.5478 22.068 22.0518 17.564 22.0518 12C22.0518 6.43598 17.5478 1.93197 12 1.93197C6.45222 1.93197 1.94821 6.43598 1.94821 12C1.94821 17.564 6.45222 22.068 12 22.068ZM12 24C5.37258 24 0 18.6274 0 12C0 5.37258 5.37258 0 12 0C18.6274 0 24 5.37258 24 12C24 18.6274 18.6274 24 12 24Z" fill="#142B6F"/>
</g>
<defs>
<clipPath id="clip0_34_2">
<rect width="24" height="24" fill="white"/>
</clipPath>
</defs>
</svg>
