<svg width="24" height="24" viewBox="0 0 24 24" fill="none" xmlns="http://www.w3.org/2000/svg">
<g clip-path="url(#clip0_51_10)">
<path fill-rule="evenodd" clip-rule="evenodd" d="M23.6325 3.08126C23.309 2.92385 22.9181 3.05821 22.7611 3.38303L21.7219 5.52239C21.2588 4.76839 20.7157 4.06962 20.0961 3.44217C18.5211 1.84634 16.7997 1.03234 15.633 0.630563C13.4097 -0.135606 11.4043 -0.0655984 10.1137 0.128335C7.47129 0.524464 5.54805 1.72111 4.39967 2.65513C3.28216 3.56435 1.75156 5.15844 0.806681 7.58913C-0.107763 9.94112 -0.081238 12.0783 0.102259 13.4571C0.282278 14.8103 0.800159 16.8388 2.24683 18.8177C2.97647 19.8161 5.06191 22.2394 8.65576 23.1869C9.27974 23.3517 9.9372 23.4656 10.5573 23.5165C10.8403 23.5395 11.1199 23.5508 11.3969 23.5508C14.7503 23.5508 17.6384 21.9233 19.5269 20.4944C19.8139 20.277 19.8704 19.8678 19.6534 19.5804C19.436 19.293 19.0264 19.2369 18.7394 19.4539C16.8766 20.8636 13.9633 22.4872 10.6638 22.2163C10.119 22.1716 9.53933 22.0711 8.98841 21.9259C5.70893 21.061 3.80526 18.739 3.29999 18.0481C2.0155 16.2905 1.55545 14.4881 1.395 13.2854C1.23194 12.0583 1.20846 10.1555 2.02246 8.06179C2.86385 5.89678 4.22747 4.47662 5.22279 3.66697C6.24464 2.83558 7.95656 1.77068 10.3068 1.41847C11.4543 1.24672 13.2349 1.18453 15.2078 1.86417C16.2431 2.2203 17.7702 2.94255 19.1677 4.35835C19.7478 4.94624 20.2505 5.60544 20.6757 6.31769L18.3772 5.8172C18.0246 5.74111 17.6776 5.96374 17.6006 6.31595C17.5241 6.66816 17.7476 7.01559 18.0994 7.09212L21.3571 7.80133C21.4041 7.81176 21.4506 7.81655 21.4967 7.81655C21.6341 7.81655 21.7628 7.76828 21.8711 7.69175C22.0459 7.64348 22.1998 7.52391 22.285 7.34823L23.9343 3.95266C24.0917 3.62871 23.9565 3.23867 23.6325 3.08126Z" fill="#142B6F"/>
<path fill-rule="evenodd" clip-rule="evenodd" d="M11.3439 4.81824C10.9834 4.81824 10.6917 5.11001 10.6917 5.47048V12.6365C10.6917 12.89 10.8382 13.1204 11.0682 13.2278L15.6104 15.3476C15.6996 15.3894 15.7935 15.4089 15.8857 15.4089C16.1313 15.4089 16.3666 15.2693 16.4775 15.0324C16.6297 14.7058 16.4888 14.3179 16.1622 14.1653L11.9961 12.2212V5.47048C11.9961 5.11001 11.7044 4.81824 11.3439 4.81824Z" fill="#142B6F"/>
</g>
<defs>
<clipPath id="clip0_51_10">
<rect width="24" height="24" fill="white"/>
</clipPath>
</defs>
</svg>
