<svg width="24" height="24" viewBox="0 0 24 24" fill="none" xmlns="http://www.w3.org/2000/svg">
<g clip-path="url(#clip0_51_25)">
<path fill-rule="evenodd" clip-rule="evenodd" d="M12.0028 1.36611C5.30664 1.36611 1.52616 7.55365 1.37134 12.0204C1.30121 14.0559 1.93326 16.1091 3.19919 17.9584C5.17139 20.8386 8.54477 22.6282 12.0028 22.6282C17.8648 22.6282 22.6339 17.8591 22.6339 11.9971C22.6339 6.13518 17.8648 1.36611 12.0028 1.36611ZM12.0028 23.9943C8.10033 23.9943 4.29526 21.977 2.07169 18.7298C0.640012 16.6387 -0.0744621 14.3022 0.0061383 11.9735C0.206501 6.19119 5.07485 0 12.0028 0C18.618 0 24 5.382 24 11.9971C24 18.6123 18.618 23.9943 12.0028 23.9943Z" fill="#142B6F"/>
<path fill-rule="evenodd" clip-rule="evenodd" d="M14.4564 13.2306C14.6176 13.9205 14.7588 14.6122 14.9077 15.3449C14.9473 15.5389 14.9874 15.7356 15.0283 15.935L14.6782 15.741C14.2401 15.4979 13.8252 15.2679 13.4059 15.0457C13.1326 14.9013 12.9232 14.7816 12.757 14.686C12.0534 14.2825 11.9992 14.282 11.3016 14.6823C11.1358 14.7775 10.9273 14.8977 10.6541 15.0416C10.2406 15.2602 9.83166 15.4883 9.39451 15.7319L9.02748 15.9355L9.03294 15.9072C9.07803 15.6755 9.11855 15.4683 9.16181 15.2611C9.20052 15.0753 9.2374 14.889 9.27429 14.7023C9.37037 14.2206 9.46919 13.7219 9.59396 13.2406C9.69915 12.8353 9.5976 12.5366 9.25425 12.2415C8.71191 11.7757 8.17913 11.2994 7.6213 10.8007L7.1764 10.4041C7.36584 10.3763 7.53341 10.3518 7.7019 10.3331L8.25699 10.2689C8.82939 10.2024 9.42046 10.1332 10.0024 10.0913C10.4191 10.0617 10.6837 9.87134 10.8603 9.47426C11.1222 8.88456 11.3981 8.30123 11.6741 7.71791L11.9742 7.0813C11.9906 7.04624 12.0083 7.01163 12.0275 6.97429L12.2155 7.37501C12.4336 7.84131 12.6427 8.28803 12.8567 8.73292C12.9669 8.96152 13.0498 9.14731 13.1171 9.29803C13.4309 10.0025 13.4828 10.0403 14.2301 10.1059C14.3931 10.12 14.5944 10.1377 14.8471 10.1682C15.3143 10.2243 15.7824 10.2766 16.2501 10.329L16.8794 10.4005L16.419 10.8112C15.8703 11.3012 15.3257 11.7875 14.772 12.2638C14.4564 12.5362 14.3617 12.8249 14.4564 13.2306ZM18.7314 10.4497C18.9008 10.2935 19.0388 9.95741 18.97 9.74156C18.9008 9.52344 18.5943 9.32809 18.3662 9.2994C17.1831 9.14776 15.9514 9.01252 14.6003 8.88547C14.3881 8.86589 14.2966 8.80123 14.2096 8.60906C13.8872 7.90005 13.5575 7.19514 13.2278 6.48978L12.7164 5.39279C12.5948 5.13096 12.4441 4.78852 12.0147 4.8122C11.6012 4.81903 11.4569 5.13278 11.3257 5.41647L11.0457 6.02029C10.6504 6.87365 10.2419 7.75616 9.82255 8.61453C9.76928 8.72381 9.61035 8.84813 9.50789 8.86134C8.88677 8.94011 8.26382 9.00796 7.64088 9.07581C7.00974 9.14503 6.37905 9.21379 5.74928 9.29393C5.49746 9.32581 5.21604 9.49475 5.09491 9.68692C4.85766 10.0626 5.22059 10.3818 5.3572 10.502C5.58807 10.7051 5.81439 10.9141 6.04071 11.1236C6.51748 11.5644 7.01065 12.0207 7.54434 12.4096C8.19324 12.8818 8.34488 13.3463 8.10399 14.1236C7.89498 14.7993 7.76428 15.4983 7.63815 16.1741C7.58441 16.4628 7.53114 16.7479 7.47239 17.027L7.4692 17.0516C7.45737 17.3471 7.56347 17.5871 7.76019 17.7096C7.85308 17.767 7.95964 17.7957 8.07439 17.7957C8.20872 17.7957 8.35399 17.756 8.4988 17.6777C9.50425 17.1317 10.6436 16.5129 11.7392 15.8831C11.9578 15.7574 12.0953 15.7597 12.3289 15.8931C13.4919 16.5571 14.5315 17.1276 15.5065 17.6363C15.7082 17.7419 16.1135 17.807 16.3198 17.649C16.5288 17.4892 16.5807 17.0903 16.5379 16.8635C16.3434 15.8321 16.1089 14.7183 15.8002 13.3576C15.756 13.1627 15.7852 13.0694 15.9309 12.9423C16.8348 12.155 17.7997 11.308 18.7314 10.4497Z" fill="#142B6F"/>
</g>
<defs>
<clipPath id="clip0_51_25">
<rect width="24" height="24" fill="white"/>
</clipPath>
</defs>
</svg>
