<svg width="24" height="24" viewBox="0 0 24 24" fill="none" xmlns="http://www.w3.org/2000/svg">
<path fill-rule="evenodd" clip-rule="evenodd" d="M20.1051 11.337C16.9227 11.337 14.2708 6.43094 14.2708 0.662984C14.2708 0.265193 14.0056 0 13.6078 0C13.21 0 12.9448 0.265193 12.9448 0.662984C12.9448 6.43094 10.2928 11.337 7.1105 11.337C6.7127 11.337 6.44751 11.6022 6.44751 12C6.44751 12.3978 6.7127 12.663 7.1105 12.663C10.2928 12.663 12.9448 17.5691 12.9448 23.337C12.9448 23.7348 13.21 24 13.6078 24C14.0056 24 14.2708 23.7348 14.2708 23.337C14.2708 17.5691 16.9227 12.663 20.1051 12.663C20.5028 12.663 20.768 12.3978 20.768 12C20.768 11.6022 20.5028 11.337 20.1051 11.337ZM13.6741 18.1657C12.8785 15.2486 11.4199 13.0608 9.56355 12C11.3536 10.9392 12.8785 8.68508 13.6741 5.83425C14.4697 8.75138 15.9282 10.9392 17.7846 12C15.9282 13.0608 14.4697 15.3149 13.6741 18.1657Z" fill="#142B6F"/>
<path fill-rule="evenodd" clip-rule="evenodd" d="M6.84533 18.232C6.38124 18.232 5.91714 17.6353 5.91714 16.7735C5.91714 16.3757 5.65195 16.1105 5.25416 16.1105C4.85636 16.1105 4.59117 16.3757 4.59117 16.7735C4.59117 17.6353 4.12708 18.232 3.66299 18.232C3.26519 18.232 3 18.4972 3 18.895C3 19.2928 3.26519 19.558 3.66299 19.558C4.12708 19.558 4.59117 20.1547 4.59117 21.0165C4.59117 21.4143 4.85636 21.6795 5.25416 21.6795C5.65195 21.6795 5.91714 21.4143 5.91714 21.0165C5.91714 20.1547 6.38124 19.558 6.84533 19.558C7.24312 19.558 7.50831 19.2928 7.50831 18.895C7.50831 18.4972 7.17682 18.232 6.84533 18.232Z" fill="#142B6F"/>
<path d="M6.84531 6.03314C7.39455 6.03314 7.83979 5.5879 7.83979 5.03866C7.83979 4.48943 7.39455 4.04419 6.84531 4.04419C6.29607 4.04419 5.85083 4.48943 5.85083 5.03866C5.85083 5.5879 6.29607 6.03314 6.84531 6.03314Z" fill="#142B6F"/>
<path fill-rule="evenodd" clip-rule="evenodd" d="M3.66299 9.08293C4.06078 9.08293 4.32598 8.75143 4.32598 8.41994C4.32598 8.02215 3.99448 7.75696 3.66299 7.75696C3.26519 7.75696 3 8.08845 3 8.41994C3 8.75143 3.26519 9.08293 3.66299 9.08293Z" fill="#142B6F"/>
</svg>
