<svg width="24" height="24" viewBox="0 0 24 24" fill="none" xmlns="http://www.w3.org/2000/svg">
<path fill-rule="evenodd" clip-rule="evenodd" d="M12.0087 14.3472C11.8726 14.4 11.7569 14.4449 11.6574 14.486C11.5889 14.4593 11.5104 14.4305 11.4205 14.3969C8.80584 13.4269 5.32979 11.6383 5.32979 7.32218C5.32979 7.3056 5.32892 7.28945 5.32761 7.27331C5.20019 5.7552 5.73081 4.30429 6.82083 3.18676C8.02955 1.9488 9.79594 1.23884 11.667 1.23884C15.274 1.23884 18.322 4.02458 18.322 7.32218C18.322 11.9009 13.7354 13.6778 12.0087 14.3472ZM10.5495 17.0125L11.7587 15.7959C11.7665 15.7946 11.7748 15.7951 11.7827 15.7937C11.8062 15.7903 11.8276 15.7802 11.8508 15.7745L13.0809 17.0125H10.5495ZM19.6311 7.32218C19.6311 3.35302 15.9835 0 11.667 0C9.43201 0 7.31479 0.855273 5.85953 2.34633C4.52471 3.71433 3.87235 5.48902 4.02071 7.34662C4.03598 12.792 8.87784 14.7775 10.7516 15.4796L9.08598 17.1561C8.95463 17.2883 8.91842 17.482 8.99478 17.6487C9.07114 17.8159 9.24438 17.9236 9.43638 17.9236H10.8004C10.7289 18.2343 10.6621 18.5332 10.6215 18.8352C10.4505 20.1107 10.6403 20.6884 11.2193 21.5411C11.9974 22.6852 13.1463 23.5117 14.636 24L14.9157 23.9311C15.1326 23.7207 15.2325 23.5488 15.2138 23.4201C15.1863 23.2359 14.8939 23.04 14.6539 22.9082L14.4523 22.7948C14.3533 22.7389 14.2542 22.6831 14.1534 22.6298C12.3705 21.6929 11.6007 20.7321 11.8656 18.9604C11.9075 18.6803 11.983 18.2932 12.0598 17.9236H14.194C14.386 17.9236 14.5597 17.8159 14.636 17.6487C14.712 17.482 14.6758 17.2883 14.5448 17.1561L12.7841 15.3844C14.7713 14.6025 19.6311 12.4726 19.6311 7.32218Z" fill="#142B6F"/>
</svg>
