<svg width="40" height="40" viewBox="0 0 40 40" fill="none" xmlns="http://www.w3.org/2000/svg">
<path d="M20.3111 35.5111C14.0889 35.5111 8.95557 30.4555 8.95557 24.1555C8.95557 18.3222 18.2889 6.49996 19.3778 5.17774C19.8445 4.6333 20.7778 4.6333 21.1667 5.17774C22.2556 6.49996 31.6667 18.2444 31.6667 24.1555C31.6667 30.3777 26.5333 35.5111 20.3111 35.5111ZM20.3111 7.82219C17.1222 11.9444 11.2889 20.2666 11.2889 24.1555C11.2889 29.1333 15.3333 33.1777 20.3111 33.1777C25.2889 33.1777 29.3333 29.1333 29.3333 24.1555C29.3333 20.2666 23.5 11.8666 20.3111 7.82219Z" fill="#142B6F"/>
<path d="M20.2333 30.0667C19.6111 30.0667 19.0667 29.5222 19.0667 28.9C19.0667 28.2778 19.6111 27.7333 20.2333 27.7333C22.7222 27.7333 24.7444 25.7111 24.7444 23.2222C24.7444 22.6 25.2889 22.0555 25.9111 22.0555C26.5333 22.0555 27.0778 22.6 27.0778 23.2222C27.0778 27.0333 23.9666 30.0667 20.2333 30.0667Z" fill="#142B6F"/>
</svg>
