<svg width="40" height="40" viewBox="0 0 40 40" fill="none" xmlns="http://www.w3.org/2000/svg">
<path d="M30.7904 9.07361C30.7792 9.06241 30.776 9.04721 30.7656 9.03601C30.7488 9.01921 30.7248 9.01281 30.7064 8.99681C27.936 6.30081 24.1608 4.63281 20 4.63281C11.5264 4.63281 4.63281 11.5264 4.63281 20C4.63281 28.4736 11.5264 35.3672 20 35.3672C28.4736 35.3672 35.3672 28.4736 35.3672 20C35.3672 15.7288 33.6128 11.8616 30.7904 9.07361ZM20 7.03281C23.0944 7.03281 25.9344 8.12481 28.1664 9.93921L9.93921 28.1656C8.12481 25.9344 7.03281 23.0936 7.03281 20C7.03281 12.8488 12.8496 7.03281 20 7.03281ZM20 32.9672C16.8064 32.9672 13.8832 31.8016 11.6216 29.88L29.88 11.6208C31.8016 13.8832 32.9672 16.8056 32.9672 20C32.9672 27.1504 27.1504 32.9672 20 32.9672Z" fill="#142B6F"/>
</svg>
