<svg width="40" height="40" viewBox="0 0 40 40" fill="none" xmlns="http://www.w3.org/2000/svg">
<path d="M16.0776 20.8919L19.0672 23.637L24.922 17.0195M20.5011 6C20.5011 6 18.2636 8.49026 15.4089 9.57317C14.5956 9.88287 13.1166 10.1188 11.7304 10.2853C9.85529 10.5149 8.46689 11.9202 8.5006 13.5761C8.54906 15.999 8.66493 19.5827 8.93039 23.1116C9.396 29.2825 18.9736 34.657 20.5011 34.657C22.0917 34.657 31.604 29.2825 32.0696 23.1116C32.3372 19.5827 32.4509 15.999 32.4994 13.5761C32.5331 11.9202 31.1447 10.5149 29.2696 10.2853C27.8855 10.1188 26.4044 9.88287 25.5911 9.57317C22.7364 8.49026 20.5011 6 20.5011 6Z" stroke="#142B6F" stroke-width="2.4" stroke-linecap="round" stroke-linejoin="round"/>
</svg>
