<svg width="40" height="40" viewBox="0 0 40 40" fill="none" xmlns="http://www.w3.org/2000/svg">
<path fill-rule="evenodd" clip-rule="evenodd" d="M17.8204 29.8128C12.6631 29.8128 8.40326 25.8863 7.87288 20.8671H7.9739C8.55984 20.8671 9.03297 20.3923 9.03297 19.8064C9.03297 19.2204 8.55984 18.7473 7.9739 18.7473H7.87288C8.40326 13.7264 12.6631 9.79992 17.8204 9.79992C22.9777 9.79992 27.2375 13.7264 27.7679 18.7473H27.6669C27.081 18.7473 26.6078 19.2204 26.6078 19.8064C26.6078 20.3923 27.081 20.8671 27.6669 20.8671H27.7679C27.2375 25.8863 22.9777 29.8128 17.8204 29.8128ZM37.6902 19.0824L33.3478 14.74C32.9353 14.3275 32.2787 14.3275 31.8998 14.74C31.4856 15.1542 31.4856 15.8092 31.8998 16.188L34.4844 18.7726H29.5729C29.0476 12.7448 23.9812 8 17.8204 8C11.668 8 6.60671 12.7313 6.06791 18.7473H3.05739C2.47313 18.7473 2 19.2204 2 19.8064C2 20.3923 2.47313 20.8671 3.05739 20.8671H6.06791C6.60671 26.8814 11.668 31.6127 17.8204 31.6127C23.9812 31.6127 29.0476 26.868 29.5729 20.8402H34.4844L31.8998 23.4264C31.4856 23.8389 31.4856 24.4956 31.8998 24.8727C32.3123 25.2869 32.969 25.2869 33.3478 24.8727L37.6902 20.5304C37.8973 20.3233 38 20.0471 38 19.8081C38 19.5319 37.8973 19.2895 37.6902 19.0824ZM13.4432 18.747H11.256C10.6718 18.747 10.1953 19.2201 10.1953 19.806C10.1953 20.3937 10.6718 20.8668 11.256 20.8668H13.4432C14.0308 20.8668 14.5039 20.3937 14.5039 19.806C14.5039 19.2201 14.0308 18.747 13.4432 18.747ZM18.9138 18.747H16.725C16.1407 18.747 15.6659 19.2201 15.6659 19.806C15.6659 20.3937 16.1407 20.8668 16.725 20.8668H18.9138C19.4998 20.8668 19.9729 20.3937 19.9729 19.806C19.9729 19.2201 19.4998 18.747 18.9138 18.747ZM24.3843 18.747H22.1971C21.6129 18.747 21.1364 19.2201 21.1364 19.806C21.1364 20.3937 21.6129 20.8668 22.1971 20.8668H24.3843C24.9719 20.8668 25.445 20.3937 25.445 19.806C25.445 19.2201 24.9719 18.747 24.3843 18.747Z" fill="#142B6F" stroke="#142B6F" stroke-width="0.3"/>
</svg>
