<svg width="40" height="40" viewBox="0 0 40 40" fill="none" xmlns="http://www.w3.org/2000/svg">
<path d="M34.8424 11.8408C34.6176 11.6152 34.3128 11.4888 33.9944 11.4888L29.4744 11.4856H29.4664C26.0312 11.4856 23.0704 13.0728 21.144 15.636C20.6576 9.64319 16.252 5.23999 10.528 5.23599L6.008 5.23279C5.3456 5.23279 4.808 5.76959 4.808 6.43199L4.8064 7.49199C4.804 10.9696 6.1592 14.244 8.6232 16.7112C11.0872 19.1784 14.3592 20.5376 17.832 20.54L18.7928 20.5456L18.7896 24.7904V24.792L18.7824 34.7664L21.1824 34.768L21.188 25.984L22.144 25.9808H22.156C25.6616 25.9808 28.9168 24.7816 31.3208 22.604C33.8144 20.3464 35.1904 17.2024 35.1928 13.7512L35.1936 12.6912C35.1936 12.3712 35.0672 12.0664 34.8424 11.8408ZM17.8384 18.14C15.0016 18.1384 12.332 17.028 10.3216 15.0152C8.3448 13.0344 7.2408 10.4176 7.208 7.63359L10.5264 7.63599C15.2936 7.63919 18.7712 11.448 18.7952 16.684L18.7944 18.1448L17.8384 18.14ZM29.7104 20.824C27.748 22.6016 25.0656 23.5792 22.152 23.5792H22.1416L21.1904 23.5824V22.948C21.1904 22.9416 21.1936 22.9352 21.1936 22.9296C21.2232 17.688 24.7024 13.8856 29.4672 13.8856H29.4736L32.792 13.888C32.7536 16.5984 31.6624 19.0568 29.7104 20.824Z" fill="#142B6F"/>
</svg>
