<svg width="18" height="18" viewBox="0 0 18 18" fill="none" xmlns="http://www.w3.org/2000/svg">
<path d="M9.2138 4.08374C10.0125 4.08374 11.0138 3.54374 11.61 2.82375C12.15 2.17125 12.5438 1.26 12.5438 0.348749C12.5438 0.225 12.5325 0.10125 12.51 0C11.6213 0.03375 10.5525 0.596249 9.9113 1.35C9.40505 1.92375 8.9438 2.82375 8.9438 3.74624C8.9438 3.88124 8.9663 4.01624 8.97755 4.06124C9.0338 4.07249 9.1238 4.08374 9.2138 4.08374ZM6.4013 17.6962C7.49255 17.6962 7.9763 16.965 9.33755 16.965C10.7213 16.965 11.025 17.6737 12.24 17.6737C13.4325 17.6737 14.2313 16.5712 14.985 15.4912C15.8288 14.2537 16.1775 13.0387 16.2 12.9825C16.1213 12.96 13.8375 12.0262 13.8375 9.40499C13.8375 7.13249 15.6375 6.10874 15.7388 6.02999C14.5463 4.31999 12.735 4.27499 12.24 4.27499C10.9013 4.27499 9.81005 5.08499 9.1238 5.08499C8.3813 5.08499 7.40255 4.31999 6.2438 4.31999C4.0388 4.31999 1.80005 6.14249 1.80005 9.58499C1.80005 11.7225 2.63255 13.9837 3.6563 15.4462C4.5338 16.6837 5.2988 17.6962 6.4013 17.6962Z" fill="black"/>
</svg>
