<svg width="24" height="24" viewBox="0 0 24 24" fill="none" xmlns="http://www.w3.org/2000/svg">
<g clip-path="url(#clip0_60_65)">
<path d="M12 2.16299C15.204 2.16299 15.584 2.17499 16.85 2.23299C20.102 2.38099 21.621 3.92398 21.769 7.15196C21.827 8.41695 21.838 8.79695 21.838 12.0009C21.838 15.2059 21.826 15.5849 21.769 16.8499C21.62 20.0749 20.105 21.6209 16.85 21.7689C15.584 21.8269 15.206 21.8389 12 21.8389C8.796 21.8389 8.416 21.8269 7.151 21.7689C3.891 21.6199 2.38 20.0699 2.232 16.8489C2.174 15.5839 2.162 15.2049 2.162 11.9999C2.162 8.79595 2.175 8.41695 2.232 7.15096C2.381 3.92398 3.896 2.37999 7.151 2.23199C8.417 2.17499 8.796 2.16299 12 2.16299ZM12 0C8.741 0 8.333 0.0139998 7.053 0.0719995C2.695 0.271998 0.273 2.68998 0.0729999 7.05196C0.0139999 8.33295 0 8.74095 0 11.9999C0 15.2589 0.0139999 15.6679 0.0719999 16.9479C0.272 21.3059 2.69 23.7279 7.052 23.9279C8.333 23.9859 8.741 23.9999 12 23.9999C15.259 23.9999 15.668 23.9859 16.948 23.9279C21.302 23.7279 23.73 21.3099 23.927 16.9479C23.986 15.6679 24 15.2589 24 11.9999C24 8.74095 23.986 8.33295 23.928 7.05296C23.732 2.69899 21.311 0.272998 16.949 0.0729995C15.668 0.0139998 15.259 0 12 0ZM12 5.83797C8.597 5.83797 5.838 8.59695 5.838 11.9999C5.838 15.4029 8.597 18.1629 12 18.1629C15.403 18.1629 18.162 15.4039 18.162 11.9999C18.162 8.59695 15.403 5.83797 12 5.83797ZM12 15.9999C9.791 15.9999 8 14.2099 8 11.9999C8 9.79095 9.791 7.99996 12 7.99996C14.209 7.99996 16 9.79095 16 11.9999C16 14.2099 14.209 15.9999 12 15.9999ZM18.406 4.15498C17.61 4.15498 16.965 4.79997 16.965 5.59497C16.965 6.38996 17.61 7.03496 18.406 7.03496C19.201 7.03496 19.845 6.38996 19.845 5.59497C19.845 4.79997 19.201 4.15498 18.406 4.15498Z" fill="#142B6F"/>
</g>
<defs>
<clipPath id="clip0_60_65">
<rect width="24" height="24" fill="white"/>
</clipPath>
</defs>
</svg>
