<svg width="24" height="24" viewBox="0 0 24 24" fill="none" xmlns="http://www.w3.org/2000/svg">
<g clip-path="url(#clip0_60_68)">
<path d="M12 0C5.373 0 0 5.37197 0 11.9999C0 17.0839 3.163 21.4259 7.627 23.1739C7.522 22.2249 7.427 20.7689 7.669 19.7329C7.887 18.7959 9.076 13.7679 9.076 13.7679C9.076 13.7679 8.717 13.0489 8.717 11.9859C8.717 10.3179 9.684 9.07195 10.888 9.07195C11.911 9.07195 12.406 9.84095 12.406 10.7619C12.406 11.7909 11.751 13.3299 11.412 14.7569C11.129 15.9509 12.011 16.9259 13.189 16.9259C15.322 16.9259 16.961 14.6769 16.961 11.4309C16.961 8.55795 14.897 6.54896 11.949 6.54896C8.535 6.54896 6.531 9.10995 6.531 11.7559C6.531 12.7869 6.928 13.8939 7.424 14.4939C7.522 14.6129 7.536 14.7179 7.507 14.8389L7.174 16.1989C7.121 16.4189 7 16.4659 6.772 16.3599C5.273 15.6619 4.336 13.4709 4.336 11.7109C4.336 7.92596 7.086 4.44898 12.265 4.44898C16.428 4.44898 19.663 7.41596 19.663 11.3799C19.663 15.5159 17.056 18.8439 13.436 18.8439C12.22 18.8439 11.077 18.2129 10.686 17.4659L9.938 20.3189C9.667 21.3619 8.936 22.6689 8.446 23.4649C9.57 23.8119 10.763 23.9999 12 23.9999C18.627 23.9999 24 18.6269 24 11.9999C24 5.37197 18.627 0 12 0Z" fill="#142B6F"/>
</g>
<defs>
<clipPath id="clip0_60_68">
<rect width="24" height="24" fill="white"/>
</clipPath>
</defs>
</svg>
