<svg width="24" height="24" viewBox="0 0 24 24" fill="none" xmlns="http://www.w3.org/2000/svg">
<path fill-rule="evenodd" clip-rule="evenodd" d="M7.54781 21.9474C16.6047 21.9474 21.5577 14.6585 21.5577 8.3381C21.5577 8.13098 21.5533 7.92489 21.5436 7.71973C22.5049 7.04466 23.3407 6.20228 24 5.24316C23.1177 5.62392 22.1682 5.88046 21.1722 5.99619C22.1888 5.40411 22.9693 4.46709 23.3374 3.35027C22.3859 3.89814 21.3324 4.29671 20.2109 4.51129C19.3123 3.58154 18.0327 3 16.6166 3C13.8972 3 11.6919 5.14225 11.6919 7.78286C11.6919 8.15831 11.7352 8.52322 11.8197 8.87348C7.72752 8.67364 4.09862 6.77021 1.6704 3.87604C1.24714 4.58272 1.00349 5.40411 1.00349 6.28015C1.00349 7.93962 1.87286 9.40457 3.19469 10.2616C2.38704 10.2374 1.62816 10.0218 0.964512 9.66326C0.963456 9.68321 0.963456 9.70317 0.963456 9.72415C0.963456 12.041 2.66102 13.9749 4.91386 14.4135C4.50029 14.5228 4.06512 14.5817 3.61584 14.5817C3.29866 14.5817 2.99011 14.5512 2.69021 14.4955C3.31699 16.3958 5.13475 17.7787 7.29014 17.8177C5.60458 19.1006 3.48163 19.8652 1.17456 19.8652C0.777312 19.8652 0.385344 19.8431 0 19.7989C2.1792 21.1555 4.76659 21.9474 7.54781 21.9474Z" fill="#142B6F"/>
</svg>
