<svg width="24" height="24" viewBox="0 0 24 24" fill="none" xmlns="http://www.w3.org/2000/svg">
<path d="M23.5058 6.59885C24 8.46924 24 12.3478 24 12.3478C24 12.3478 24 16.2264 23.5058 18.0968C23.229 19.1206 22.4185 19.9278 21.3904 20.2034C19.5124 20.6957 12 20.6957 12 20.6957C12 20.6957 4.48764 20.6957 2.60956 20.2034C1.58155 19.9278 0.771005 19.1206 0.494234 18.0968C0 16.2461 0 12.3478 0 12.3478C0 12.3478 0 8.46924 0.494234 6.59885C0.771005 5.57506 1.58155 4.76784 2.60956 4.49221C4.48764 4 12 4 12 4C12 4 19.5124 4 21.3904 4.49221C22.4185 4.76784 23.229 5.57506 23.5058 6.59885ZM9.58814 15.9508L15.8353 12.3675L9.58814 8.76456V15.9508Z" fill="#142B6F"/>
</svg>
