<svg width="352" height="116" viewBox="0 0 352 116" fill="none" xmlns="http://www.w3.org/2000/svg">
<path d="M83.784 109.63L62.1171 77.18C75.2591 70.616 82.6061 59.021 82.6061 44.669C82.6061 23.197 66.5951 7.05198 38.1651 7.05198H5.23206V109.63H23.6581V82.282H43.7121L61.6981 109.63H83.784ZM40.0501 63.422H23.6581V25.914H40.0501C53.1051 25.914 63.2591 31.756 63.2591 44.669C63.2601 57.578 53.1051 63.422 40.0501 63.422ZM329.012 7.05198H347.434V109.63H329.012V7.05198ZM146.311 52.728V86.751C146.604 91.274 148.63 93.39 152.627 93.39C156.619 93.39 159.595 91.634 162.013 89.702V107.053C158.483 109.532 152.494 111.328 145.844 110.934C141.421 110.67 136.237 108.773 132.601 105.034C129.455 101.104 127.881 97.205 127.881 90.582V52.728H118.46V36.068H127.881V12.132H146.311V36.068H158.883V52.728H146.311ZM237.831 109.615H221.308L219.598 101.231C216.212 105.647 209.253 110.498 199.102 110.498C180.862 110.498 168.464 99.762 168.464 80.197V36.069H186.695V74.052C186.695 86.996 192.479 92.587 203.074 92.587C213.663 92.587 219.597 84.938 219.597 74.052V36.069H237.83L237.831 109.615ZM319.535 36.158V109.63H304.788L303.076 101.988C299.991 105.956 291.912 110.51 282.065 110.51C261.054 110.51 245.179 94.934 245.179 72.895C245.179 50.852 261.054 35.275 282.065 35.275C291.762 35.275 299.991 39.831 303.076 43.798L304.788 36.157L319.535 36.158ZM282.628 52.676C271.44 52.676 262.815 61.843 262.815 72.896C262.815 83.946 271.441 93.111 282.628 93.111C293.546 93.111 301.903 83.946 301.903 72.896C301.903 61.843 293.546 52.676 282.628 52.676ZM91.493 36.066H109.918V109.628H91.493V36.066ZM112.609 15.597C112.609 22.302 107.246 27.737 100.632 27.737C94.0171 27.737 88.6541 22.302 88.6541 15.597C88.6541 8.89398 94.0161 3.45898 100.632 3.45898C107.246 3.45898 112.609 8.89398 112.609 15.597Z" fill="#142B6F"/>
</svg>
